<mxfile host="65bd71144e">
    <diagram id="g32roVNftYkZaOqn-Fnz" name="ページ1">
        <mxGraphModel dx="960" dy="472" grid="1" gridSize="10" guides="1" tooltips="1" connect="1" arrows="1" fold="1" page="1" pageScale="1" pageWidth="827" pageHeight="1169" math="0" shadow="0">
            <root>
                <mxCell id="0"/>
                <mxCell id="1" parent="0"/>
                <mxCell id="85" value="モデル" style="rounded=0;whiteSpace=wrap;html=1;fillColor=#f5f5f5;fontColor=#333333;strokeColor=#666666;fontStyle=1;verticalAlign=top;fontSize=17;" parent="1" vertex="1">
                    <mxGeometry x="780" y="130" width="560" height="430" as="geometry"/>
                </mxCell>
                <mxCell id="5" value="&lt;b&gt;Store&lt;/b&gt;" style="rounded=0;whiteSpace=wrap;html=1;fontSize=16;verticalAlign=top;fillColor=#fff2cc;strokeColor=#d6b656;fontFamily=Noto Sans JP;fontSource=https%3A%2F%2Ffonts.googleapis.com%2Fcss%3Ffamily%3DNoto%2BSans%2BJP;" parent="1" vertex="1">
                    <mxGeometry x="790" y="170" width="380" height="250" as="geometry"/>
                </mxCell>
                <mxCell id="12" value="API" style="rounded=0;whiteSpace=wrap;html=1;fontSize=16;fillColor=#f5f5f5;strokeColor=#666666;fontFamily=Noto Sans JP;fontSource=https%3A%2F%2Ffonts.googleapis.com%2Fcss%3Ffamily%3DNoto%2BSans%2BJP;fontColor=#333333;" parent="1" vertex="1">
                    <mxGeometry x="1380" y="130" width="120" height="430" as="geometry"/>
                </mxCell>
                <mxCell id="19" value="&lt;span&gt;State&lt;br&gt;&lt;span style=&quot;font-weight: normal;&quot;&gt;アプリケーションの状態・データ&lt;/span&gt;&lt;/span&gt;&lt;span&gt;&lt;br&gt;&lt;/span&gt;" style="rounded=0;whiteSpace=wrap;html=1;fontSize=14;fontFamily=Noto Sans JP;fontSource=https%3A%2F%2Ffonts.googleapis.com%2Fcss%3Ffamily%3DNoto%2BSans%2BJP;perimeterSpacing=4;fontStyle=1;align=center;" parent="1" vertex="1">
                    <mxGeometry x="832" y="220" width="305" height="62" as="geometry"/>
                </mxCell>
                <mxCell id="57" value="&lt;span&gt;データのビジネスロジック&lt;/span&gt;&lt;br&gt;&lt;span style=&quot;font-weight: normal&quot;&gt;Stateの入出力、加工&lt;br&gt;&lt;/span&gt;" style="rounded=0;whiteSpace=wrap;html=1;fontSize=14;fontFamily=Noto Sans JP;fontSource=https%3A%2F%2Ffonts.googleapis.com%2Fcss%3Ffamily%3DNoto%2BSans%2BJP;perimeterSpacing=9;fontStyle=1;align=center;" parent="1" vertex="1">
                    <mxGeometry x="832" y="330" width="305" height="70" as="geometry"/>
                </mxCell>
                <mxCell id="64" value="Component" style="rounded=0;whiteSpace=wrap;html=1;align=center;spacingLeft=5;fillColor=#CCFFCC;fontColor=#000000;strokeColor=#66FFB3;verticalAlign=top;fontSize=16;fontFamily=Noto Sans JP;fontSource=https%3A%2F%2Ffonts.googleapis.com%2Fcss%3Ffamily%3DNoto%2BSans%2BJP;fontStyle=1;spacingTop=6;" parent="1" vertex="1">
                    <mxGeometry x="90" y="120" width="590" height="210" as="geometry"/>
                </mxCell>
                <mxCell id="65" value="&lt;b&gt;ビュー&lt;/b&gt;&lt;br style=&quot;font-size: 14px&quot;&gt;(データバインド、デザイン、&lt;br&gt;フォーマット)" style="rounded=0;whiteSpace=wrap;html=1;fontSize=14;fontFamily=Noto Sans JP;fontSource=https%3A%2F%2Ffonts.googleapis.com%2Fcss%3Ffamily%3DNoto%2BSans%2BJP;perimeterSpacing=4;fillColor=#f5f5f5;strokeColor=#666666;fontColor=#333333;" parent="1" vertex="1">
                    <mxGeometry x="110.5" y="191" width="249.5" height="99" as="geometry"/>
                </mxCell>
                <mxCell id="66" value="&lt;b&gt;ビューモデル&lt;/b&gt;&lt;br style=&quot;font-size: 14px&quot;&gt;(イベント処理、入力チェック)" style="rounded=0;whiteSpace=wrap;html=1;fontSize=14;fontFamily=Noto Sans JP;fontSource=https%3A%2F%2Ffonts.googleapis.com%2Fcss%3Ffamily%3DNoto%2BSans%2BJP;perimeterSpacing=4;fillColor=#f5f5f5;fontColor=#333333;strokeColor=#666666;" parent="1" vertex="1">
                    <mxGeometry x="413" y="195" width="250" height="95" as="geometry"/>
                </mxCell>
                <mxCell id="58" value="" style="endArrow=classic;html=1;fontSize=14;fontFamily=Noto Sans JP;fontSource=https%3A%2F%2Ffonts.googleapis.com%2Fcss%3Ffamily%3DNoto%2BSans%2BJP;exitX=1;exitY=0.5;exitDx=0;exitDy=0;" parent="1" source="66" edge="1">
                    <mxGeometry width="50" height="50" relative="1" as="geometry">
                        <mxPoint x="640" y="262" as="sourcePoint"/>
                        <mxPoint x="820" y="340" as="targetPoint"/>
                    </mxGeometry>
                </mxCell>
                <mxCell id="79" value="" style="shape=flexArrow;endArrow=classic;startArrow=classic;html=1;startSize=2;endSize=2;strokeWidth=1;exitX=0.5;exitY=0;exitDx=0;exitDy=0;entryX=0.5;entryY=1;entryDx=0;entryDy=0;" parent="1" source="57" target="19" edge="1">
                    <mxGeometry width="100" height="100" relative="1" as="geometry">
                        <mxPoint x="900" y="310" as="sourcePoint"/>
                        <mxPoint x="1000" y="210" as="targetPoint"/>
                    </mxGeometry>
                </mxCell>
                <mxCell id="80" value="" style="endArrow=classic;html=1;fontSize=14;fontFamily=Noto Sans JP;fontSource=https%3A%2F%2Ffonts.googleapis.com%2Fcss%3Ffamily%3DNoto%2BSans%2BJP;startArrow=classic;startFill=1;dashed=1;strokeWidth=3;dashPattern=1 1;entryX=1;entryY=0.5;entryDx=0;entryDy=0;" parent="1" source="66" target="65" edge="1">
                    <mxGeometry width="50" height="50" relative="1" as="geometry">
                        <mxPoint x="390" y="223" as="sourcePoint"/>
                        <mxPoint x="1151" y="375" as="targetPoint"/>
                    </mxGeometry>
                </mxCell>
                <mxCell id="81" value="Component" style="rounded=0;whiteSpace=wrap;html=1;align=center;spacingLeft=5;fillColor=#CCFFCC;fontColor=#000000;strokeColor=#66FFB3;verticalAlign=top;fontSize=16;fontFamily=Noto Sans JP;fontSource=https%3A%2F%2Ffonts.googleapis.com%2Fcss%3Ffamily%3DNoto%2BSans%2BJP;fontStyle=1;spacingTop=6;" parent="1" vertex="1">
                    <mxGeometry x="90" y="360" width="590" height="210" as="geometry"/>
                </mxCell>
                <mxCell id="82" value="&lt;b&gt;ビュー&lt;/b&gt;&lt;br style=&quot;font-size: 14px&quot;&gt;(データバインド、デザイン、&lt;br style=&quot;font-size: 14px&quot;&gt;フォーマット)" style="rounded=0;whiteSpace=wrap;html=1;fontSize=14;fontFamily=Noto Sans JP;fontSource=https%3A%2F%2Ffonts.googleapis.com%2Fcss%3Ffamily%3DNoto%2BSans%2BJP;perimeterSpacing=4;fillColor=#f5f5f5;fontColor=#333333;strokeColor=#666666;" parent="1" vertex="1">
                    <mxGeometry x="110.5" y="431" width="249.5" height="99" as="geometry"/>
                </mxCell>
                <mxCell id="83" value="&lt;b&gt;ビューモデル&lt;/b&gt;&lt;br style=&quot;font-size: 14px&quot;&gt;(イベント処理、入力チェック)" style="rounded=0;whiteSpace=wrap;html=1;fontSize=14;fontFamily=Noto Sans JP;fontSource=https%3A%2F%2Ffonts.googleapis.com%2Fcss%3Ffamily%3DNoto%2BSans%2BJP;perimeterSpacing=4;fillColor=#f5f5f5;fontColor=#333333;strokeColor=#666666;" parent="1" vertex="1">
                    <mxGeometry x="413" y="435" width="250" height="95" as="geometry"/>
                </mxCell>
                <mxCell id="84" value="" style="endArrow=classic;html=1;fontSize=14;fontFamily=Noto Sans JP;fontSource=https%3A%2F%2Ffonts.googleapis.com%2Fcss%3Ffamily%3DNoto%2BSans%2BJP;startArrow=classic;startFill=1;dashed=1;strokeWidth=3;dashPattern=1 1;entryX=1;entryY=0.5;entryDx=0;entryDy=0;" parent="1" source="83" target="82" edge="1">
                    <mxGeometry width="50" height="50" relative="1" as="geometry">
                        <mxPoint x="390" y="463" as="sourcePoint"/>
                        <mxPoint x="1151" y="615" as="targetPoint"/>
                    </mxGeometry>
                </mxCell>
                <mxCell id="70" value="" style="endArrow=classic;html=1;fontSize=14;fontFamily=Noto Sans JP;fontSource=https%3A%2F%2Ffonts.googleapis.com%2Fcss%3Ffamily%3DNoto%2BSans%2BJP;exitX=1;exitY=0.5;exitDx=0;exitDy=0;" parent="1" source="83" target="87" edge="1">
                    <mxGeometry width="50" height="50" relative="1" as="geometry">
                        <mxPoint x="634.4999999999995" y="513" as="sourcePoint"/>
                        <mxPoint x="870" y="483" as="targetPoint"/>
                    </mxGeometry>
                </mxCell>
                <mxCell id="87" value="サービス(仮)&lt;br&gt;&lt;span style=&quot;font-weight: normal;&quot;&gt;データの保存を伴わないロジック&lt;br&gt;候補：Service, Activity, Business&lt;br&gt;&lt;/span&gt;" style="rounded=0;whiteSpace=wrap;html=1;fontSize=14;fontFamily=Noto Sans JP;fontSource=https%3A%2F%2Ffonts.googleapis.com%2Fcss%3Ffamily%3DNoto%2BSans%2BJP;perimeterSpacing=4;fontStyle=1;align=center;" parent="1" vertex="1">
                    <mxGeometry x="832" y="447.5" width="308" height="70" as="geometry"/>
                </mxCell>
                <mxCell id="88" value="" style="endArrow=classic;html=1;fontSize=14;fontFamily=Noto Sans JP;fontSource=https%3A%2F%2Ffonts.googleapis.com%2Fcss%3Ffamily%3DNoto%2BSans%2BJP;startArrow=classic;startFill=1;dashed=1;strokeWidth=6;dashPattern=1 1;" parent="1" edge="1">
                    <mxGeometry width="50" height="50" relative="1" as="geometry">
                        <mxPoint x="1370" y="370" as="sourcePoint"/>
                        <mxPoint x="1137" y="370" as="targetPoint"/>
                    </mxGeometry>
                </mxCell>
                <mxCell id="89" value="" style="endArrow=classic;html=1;fontSize=14;fontFamily=Noto Sans JP;fontSource=https%3A%2F%2Ffonts.googleapis.com%2Fcss%3Ffamily%3DNoto%2BSans%2BJP;startArrow=classic;startFill=1;dashed=1;strokeWidth=6;dashPattern=1 1;" parent="1" edge="1">
                    <mxGeometry width="50" height="50" relative="1" as="geometry">
                        <mxPoint x="1370" y="479.90999999999997" as="sourcePoint"/>
                        <mxPoint x="1140" y="480" as="targetPoint"/>
                    </mxGeometry>
                </mxCell>
                <mxCell id="86" value="APIモデル" style="ellipse;whiteSpace=wrap;html=1;rounded=1;fontSize=16;fontStyle=1;fillColor=#b0e3e6;strokeColor=#0e8088;" parent="1" vertex="1">
                    <mxGeometry x="1220" y="320" width="90" height="220" as="geometry"/>
                </mxCell>
                <mxCell id="90" value="" style="endArrow=classic;html=1;fontSize=14;fontFamily=Noto Sans JP;fontSource=https%3A%2F%2Ffonts.googleapis.com%2Fcss%3Ffamily%3DNoto%2BSans%2BJP;exitX=1;exitY=0.5;exitDx=0;exitDy=0;entryX=0;entryY=0.5;entryDx=0;entryDy=0;" parent="1" source="83" target="57" edge="1">
                    <mxGeometry width="50" height="50" relative="1" as="geometry">
                        <mxPoint x="677" y="492.5" as="sourcePoint"/>
                        <mxPoint x="838" y="492.5" as="targetPoint"/>
                    </mxGeometry>
                </mxCell>
                <mxCell id="94" value="&lt;br&gt;APIアクセスをラップするだけの簡単なデータ取得ロジックなんかはViewModelにおいてもいい気がする&lt;br&gt;ただし、単体テストの観点からするとフロントエンドの単体テストはComponentに対しては、ブラックボックスで行う方針のためViewModelにいるとやりづらそう" style="text;html=1;strokeColor=#d6b656;fillColor=#fff2cc;align=left;verticalAlign=top;whiteSpace=wrap;rounded=0;" parent="1" vertex="1">
                    <mxGeometry x="800" y="580" width="530" height="290" as="geometry"/>
                </mxCell>
                <mxCell id="104" value="" style="group" parent="1" vertex="1" connectable="0">
                    <mxGeometry x="630" y="1010" width="480" height="90" as="geometry"/>
                </mxCell>
                <mxCell id="95" value="ViewModel" style="rounded=0;whiteSpace=wrap;html=1;" parent="104" vertex="1">
                    <mxGeometry width="120" height="60" as="geometry"/>
                </mxCell>
                <mxCell id="96" value="ビジネスロジック&lt;br&gt;Web APIコール" style="rounded=0;whiteSpace=wrap;html=1;" parent="104" vertex="1">
                    <mxGeometry x="170" width="120" height="60" as="geometry"/>
                </mxCell>
                <mxCell id="103" style="edgeStyle=none;rounded=1;sketch=0;jumpSize=6;html=1;exitX=1;exitY=0.25;exitDx=0;exitDy=0;entryX=0;entryY=0.25;entryDx=0;entryDy=0;shadow=0;strokeColor=#2E303E;strokeWidth=3;fontSize=8;elbow=vertical;" parent="104" source="95" target="96" edge="1">
                    <mxGeometry relative="1" as="geometry"/>
                </mxCell>
                <mxCell id="97" value="Web API" style="rounded=0;whiteSpace=wrap;html=1;" parent="104" vertex="1">
                    <mxGeometry x="360" width="120" height="60" as="geometry"/>
                </mxCell>
                <mxCell id="102" style="edgeStyle=none;rounded=1;sketch=0;jumpSize=6;html=1;exitX=1;exitY=0.25;exitDx=0;exitDy=0;entryX=0;entryY=0.25;entryDx=0;entryDy=0;shadow=0;strokeColor=#2E303E;strokeWidth=3;fontSize=8;elbow=vertical;" parent="104" source="96" target="97" edge="1">
                    <mxGeometry relative="1" as="geometry"/>
                </mxCell>
                <mxCell id="99" value="ロジックの&lt;br&gt;失敗処理" style="rounded=0;whiteSpace=wrap;html=1;fillColor=#f8cecc;strokeColor=#b85450;" parent="104" vertex="1">
                    <mxGeometry x="200" y="50" width="80" height="40" as="geometry"/>
                </mxCell>
                <mxCell id="98" value="失敗" style="edgeStyle=none;rounded=1;sketch=0;html=1;exitX=0;exitY=0.75;exitDx=0;exitDy=0;entryX=1;entryY=0.5;entryDx=0;entryDy=0;shadow=0;elbow=vertical;strokeColor=#FF4D17;jumpSize=6;strokeWidth=3;" parent="104" source="97" target="99" edge="1">
                    <mxGeometry relative="1" as="geometry"/>
                </mxCell>
                <mxCell id="100" value="失敗" style="edgeStyle=none;rounded=1;sketch=0;html=1;entryX=1;entryY=0.5;entryDx=0;entryDy=0;shadow=0;elbow=vertical;strokeColor=#FF4D17;jumpSize=6;strokeWidth=3;" parent="104" source="99" target="101" edge="1">
                    <mxGeometry relative="1" as="geometry">
                        <mxPoint x="200" y="69.75999999999999" as="sourcePoint"/>
                        <mxPoint x="130" y="69.75999999999999" as="targetPoint"/>
                    </mxGeometry>
                </mxCell>
                <mxCell id="101" value="Viewの&lt;br&gt;失敗処理&lt;br&gt;&lt;font style=&quot;font-size: 8px;&quot;&gt;画面遷移など&lt;/font&gt;" style="rounded=0;whiteSpace=wrap;html=1;fillColor=#f8cecc;strokeColor=#b85450;" parent="104" vertex="1">
                    <mxGeometry x="32" y="50" width="80" height="40" as="geometry"/>
                </mxCell>
            </root>
        </mxGraphModel>
    </diagram>
</mxfile>